<svg xmlns="http://www.w3.org/2000/svg">
  <!-- <symbol
    id="flight-search-icon-active"
    width="20"
    height="14"
    viewBox="0 0 20 14"
    fill="none"
    xmlns="http://www.w3.org/2000/svg"
  >
    <path
      fill-rule="evenodd"
      clip-rule="evenodd"
      d="M19.657 4.90274C19.4611 4.20674 19.035 3.67371 18.426 3.36071C17.251 2.75671 15.849 3.1527 15.301 3.3507C14.213 3.7437 13.164 4.20474 12.071 4.64674C10.856 3.52171 9.62102 2.43671 8.46802 1.43171C7.64207 0.709705 6.79407 0.444705 5.94107 0.648705C5.49807 0.756705 5.07907 0.917705 4.67407 1.07271C4.46807 1.15271 4.25807 1.23271 4.04207 1.30771C3.84607 1.37471 3.68807 1.51971 3.60307 1.70771C3.51807 1.89671 3.51407 2.1117 3.59307 2.3027L5.66307 7.32174C4.94907 7.62174 4.07207 7.99374 3.24507 8.34474L2.00007 8.87274C1.87707 8.57474 1.74407 8.25474 1.69507 8.13274C1.53707 7.75074 1.10107 7.56474 0.717069 7.72274C0.333069 7.87974 0.149069 8.31774 0.306069 8.70074C0.396069 8.92173 0.755069 9.78574 0.849069 10.0107C0.868069 10.0557 0.888069 10.0997 0.907069 10.1437L0.909069 10.1467C0.915069 10.1607 0.921069 10.1747 0.928069 10.1887C1.81607 12.1317 3.29407 13.1617 5.08407 13.1617C5.76007 13.1617 6.48207 13.0137 7.23307 12.7127C10.532 11.3957 13.699 10.0717 17.501 8.47574C18.858 7.89474 20.113 6.52774 19.657 4.90274Z"
      fill="white"
    />
  </symbol> -->

  <!-- <symbol
    id="flight-search-icon"
    width="20"
    height="14"
    viewBox="0 0 20 14"
    fill="none"
    xmlns="http://www.w3.org/2000/svg"
  >
    <path
      fill-rule="evenodd"
      clip-rule="evenodd"
      d="M19.657 4.90274C19.4611 4.20674 19.035 3.67371 18.426 3.36071C17.251 2.75671 15.849 3.1527 15.301 3.3507C14.213 3.7437 13.164 4.20474 12.071 4.64674C10.856 3.52171 9.62102 2.43671 8.46802 1.43171C7.64207 0.709705 6.79407 0.444705 5.94107 0.648705C5.49807 0.756705 5.07907 0.917705 4.67407 1.07271C4.46807 1.15271 4.25807 1.23271 4.04207 1.30771C3.84607 1.37471 3.68807 1.51971 3.60307 1.70771C3.51807 1.89671 3.51407 2.1117 3.59307 2.3027L5.66307 7.32174C4.94907 7.62174 4.07207 7.99374 3.24507 8.34474L2.00007 8.87274C1.87707 8.57474 1.74407 8.25474 1.69507 8.13274C1.53707 7.75074 1.10107 7.56474 0.717069 7.72274C0.333069 7.87974 0.149069 8.31774 0.306069 8.70074C0.396069 8.92173 0.755069 9.78574 0.849069 10.0107C0.868069 10.0557 0.888069 10.0997 0.907069 10.1437L0.909069 10.1467C0.915069 10.1607 0.921069 10.1747 0.928069 10.1887C1.81607 12.1317 3.29407 13.1617 5.08407 13.1617C5.76007 13.1617 6.48207 13.0137 7.23307 12.7127C10.532 11.3957 13.699 10.0717 17.501 8.47574C18.858 7.89474 20.113 6.52774 19.657 4.90274Z"
      fill="#52525B"
    />
  </symbol> -->

  <!-- <symbol
    id="hotel-search-icon-active"
    width="24"
    height="24"
    viewBox="0 0 24 24"
    fill="none"
    xmlns="http://www.w3.org/2000/svg"
  >
    <path
      fill-rule="evenodd"
      clip-rule="evenodd"
      d="M4.62109 10.6431H6.83909C6.94954 10.6431 7.03854 10.5535 7.03761 10.4431C7.03538 10.1766 7.03865 9.90433 7.12609 9.65306C7.28009 9.22606 7.60909 8.89706 8.03109 8.74606C8.27809 8.65706 8.52709 8.65706 8.97909 8.65706H9.59909C10.0521 8.65706 10.3021 8.65706 10.5481 8.74706C10.9691 8.89706 11.2981 9.22606 11.4501 9.64706C11.5383 9.90074 11.5424 10.1745 11.5405 10.4431C11.5397 10.5535 11.6287 10.6431 11.7391 10.6431H12.3391C12.4496 10.6431 12.5386 10.5535 12.5377 10.4431C12.5354 10.1766 12.5387 9.90433 12.6261 9.65306C12.7801 9.22606 13.1091 8.89706 13.5311 8.74606C13.7781 8.65706 14.0271 8.65706 14.4791 8.65706H15.0991C15.5521 8.65706 15.8021 8.65706 16.0481 8.74706C16.4691 8.89706 16.7981 9.22606 16.9501 9.64706C17.0383 9.90074 17.0424 10.1745 17.0405 10.4431C17.0397 10.5535 17.1287 10.6431 17.2391 10.6431H19.4581C19.7351 10.6431 19.9581 10.4191 19.9581 10.1431V6.92906C19.9581 6.15806 19.9581 5.77106 19.8261 5.40306C19.5981 4.77106 19.1041 4.27906 18.4801 4.05606C18.1061 3.91406 17.7171 3.91406 16.9401 3.91406H7.14009C6.36309 3.91406 5.97409 3.91406 5.61009 4.05306C4.97609 4.27906 4.48209 4.77106 4.25409 5.40306C4.12109 5.77006 4.12109 6.15806 4.12109 6.92906V10.1431C4.12109 10.4191 4.34509 10.6431 4.62109 10.6431Z"
      fill="#fff"
    />
    <path
      fill-rule="evenodd"
      clip-rule="evenodd"
      d="M21.6501 13.1459C21.4171 12.4939 20.9051 11.9759 20.2231 11.7179C19.8421 11.5879 19.4481 11.5879 18.7341 11.5879H5.34206C4.62806 11.5879 4.23506 11.5879 3.83106 11.7269C3.17306 11.9759 2.66206 12.4929 2.42906 13.1409C2.28906 13.5249 2.28906 13.9199 2.28906 14.6379V19.3379C2.28906 19.7519 2.62506 20.0879 3.03906 20.0879C3.45306 20.0879 3.78906 19.7519 3.78906 19.3379V19.0479C3.78906 18.9374 3.87861 18.8479 3.98906 18.8479H20.0891C20.1995 18.8479 20.2891 18.9374 20.2891 19.0479V19.3379C20.2891 19.7519 20.6251 20.0879 21.0391 20.0879C21.4531 20.0879 21.7891 19.7519 21.7891 19.3379V14.6379C21.7891 13.9199 21.7891 13.5249 21.6501 13.1459Z"
      fill="#fff"
    />
  </symbol> -->

  <!-- <symbol
    id="hotel-search-icon"
    width="24"
    height="24"
    viewBox="0 0 24 24"
    fill="none"
    xmlns="http://www.w3.org/2000/svg"
  >
    <path
      fill-rule="evenodd"
      clip-rule="evenodd"
      d="M4.62109 10.6431H6.83909C6.94954 10.6431 7.03854 10.5535 7.03761 10.4431C7.03538 10.1766 7.03865 9.90433 7.12609 9.65306C7.28009 9.22606 7.60909 8.89706 8.03109 8.74606C8.27809 8.65706 8.52709 8.65706 8.97909 8.65706H9.59909C10.0521 8.65706 10.3021 8.65706 10.5481 8.74706C10.9691 8.89706 11.2981 9.22606 11.4501 9.64706C11.5383 9.90074 11.5424 10.1745 11.5405 10.4431C11.5397 10.5535 11.6287 10.6431 11.7391 10.6431H12.3391C12.4496 10.6431 12.5386 10.5535 12.5377 10.4431C12.5354 10.1766 12.5387 9.90433 12.6261 9.65306C12.7801 9.22606 13.1091 8.89706 13.5311 8.74606C13.7781 8.65706 14.0271 8.65706 14.4791 8.65706H15.0991C15.5521 8.65706 15.8021 8.65706 16.0481 8.74706C16.4691 8.89706 16.7981 9.22606 16.9501 9.64706C17.0383 9.90074 17.0424 10.1745 17.0405 10.4431C17.0397 10.5535 17.1287 10.6431 17.2391 10.6431H19.4581C19.7351 10.6431 19.9581 10.4191 19.9581 10.1431V6.92906C19.9581 6.15806 19.9581 5.77106 19.8261 5.40306C19.5981 4.77106 19.1041 4.27906 18.4801 4.05606C18.1061 3.91406 17.7171 3.91406 16.9401 3.91406H7.14009C6.36309 3.91406 5.97409 3.91406 5.61009 4.05306C4.97609 4.27906 4.48209 4.77106 4.25409 5.40306C4.12109 5.77006 4.12109 6.15806 4.12109 6.92906V10.1431C4.12109 10.4191 4.34509 10.6431 4.62109 10.6431Z"
      fill="#52525B"
    />
    <path
      fill-rule="evenodd"
      clip-rule="evenodd"
      d="M21.6501 13.1459C21.4171 12.4939 20.9051 11.9759 20.2231 11.7179C19.8421 11.5879 19.4481 11.5879 18.7341 11.5879H5.34206C4.62806 11.5879 4.23506 11.5879 3.83106 11.7269C3.17306 11.9759 2.66206 12.4929 2.42906 13.1409C2.28906 13.5249 2.28906 13.9199 2.28906 14.6379V19.3379C2.28906 19.7519 2.62506 20.0879 3.03906 20.0879C3.45306 20.0879 3.78906 19.7519 3.78906 19.3379V19.0479C3.78906 18.9374 3.87861 18.8479 3.98906 18.8479H20.0891C20.1995 18.8479 20.2891 18.9374 20.2891 19.0479V19.3379C20.2891 19.7519 20.6251 20.0879 21.0391 20.0879C21.4531 20.0879 21.7891 19.7519 21.7891 19.3379V14.6379C21.7891 13.9199 21.7891 13.5249 21.6501 13.1459Z"
      fill="#626262"
    />
  </symbol> -->

  <!-- <symbol
    id="flighthotel-search-icon-active"
    width="24"
    height="26"
    viewBox="0 0 24 26"
    fill="none"
    xmlns="http://www.w3.org/2000/svg"
  >
    <path
      fill-rule="evenodd"
      clip-rule="evenodd"
      d="M16.157 18.1211C16.157 18.5351 15.821 18.8711 15.407 18.8711C14.993 18.8711 14.657 18.5351 14.657 18.1211V12.9411C14.657 12.5271 14.993 12.1911 15.407 12.1911C15.821 12.1911 16.157 12.5271 16.157 12.9411V18.1211ZM14.284 8.90109H9.716V6.50109C9.716 6.01609 10.11 5.62109 10.595 5.62109H13.404C13.889 5.62109 14.284 6.01609 14.284 6.50109V8.90109ZM12.751 18.1211C12.751 18.5351 12.415 18.8711 12.001 18.8711C11.587 18.8711 11.251 18.5351 11.251 18.1211V12.9411C11.251 12.5271 11.587 12.1911 12.001 12.1911C12.415 12.1911 12.751 12.5271 12.751 12.9411V18.1211ZM9.351 18.1211C9.351 18.5351 9.015 18.8711 8.601 18.8711C8.187 18.8711 7.851 18.5351 7.851 18.1211V12.9411C7.851 12.5271 8.187 12.1911 8.601 12.1911C9.015 12.1911 9.351 12.5271 9.351 12.9411V18.1211ZM15.784 8.93209V6.50109C15.784 5.18809 14.716 4.12109 13.404 4.12109H10.595C9.283 4.12109 8.216 5.18809 8.216 6.50109V8.93209C5.92 9.09309 4.5 10.6561 4.5 13.1211V17.8011C4.5 20.1391 5.768 21.6731 7.849 21.9681V22.8711C7.849 23.2851 8.185 23.6211 8.599 23.6211C9.013 23.6211 9.349 23.2851 9.349 22.8711V22.0311H14.655V22.8711C14.655 23.2851 14.991 23.6211 15.405 23.6211C15.819 23.6211 16.155 23.2851 16.155 22.8711V21.9681C18.233 21.6731 19.498 20.1421 19.498 17.8101V13.1211C19.498 10.6551 18.079 9.09209 15.784 8.93209Z"
      fill="#fff"
    />
  </symbol> -->

  <!-- <symbol
    id="flighthotel-search-icon"
    width="24"
    height="26"
    viewBox="0 0 24 26"
    fill="none"
    xmlns="http://www.w3.org/2000/svg"
  >
    <path
      fill-rule="evenodd"
      clip-rule="evenodd"
      d="M16.157 18.1211C16.157 18.5351 15.821 18.8711 15.407 18.8711C14.993 18.8711 14.657 18.5351 14.657 18.1211V12.9411C14.657 12.5271 14.993 12.1911 15.407 12.1911C15.821 12.1911 16.157 12.5271 16.157 12.9411V18.1211ZM14.284 8.90109H9.716V6.50109C9.716 6.01609 10.11 5.62109 10.595 5.62109H13.404C13.889 5.62109 14.284 6.01609 14.284 6.50109V8.90109ZM12.751 18.1211C12.751 18.5351 12.415 18.8711 12.001 18.8711C11.587 18.8711 11.251 18.5351 11.251 18.1211V12.9411C11.251 12.5271 11.587 12.1911 12.001 12.1911C12.415 12.1911 12.751 12.5271 12.751 12.9411V18.1211ZM9.351 18.1211C9.351 18.5351 9.015 18.8711 8.601 18.8711C8.187 18.8711 7.851 18.5351 7.851 18.1211V12.9411C7.851 12.5271 8.187 12.1911 8.601 12.1911C9.015 12.1911 9.351 12.5271 9.351 12.9411V18.1211ZM15.784 8.93209V6.50109C15.784 5.18809 14.716 4.12109 13.404 4.12109H10.595C9.283 4.12109 8.216 5.18809 8.216 6.50109V8.93209C5.92 9.09309 4.5 10.6561 4.5 13.1211V17.8011C4.5 20.1391 5.768 21.6731 7.849 21.9681V22.8711C7.849 23.2851 8.185 23.6211 8.599 23.6211C9.013 23.6211 9.349 23.2851 9.349 22.8711V22.0311H14.655V22.8711C14.655 23.2851 14.991 23.6211 15.405 23.6211C15.819 23.6211 16.155 23.2851 16.155 22.8711V21.9681C18.233 21.6731 19.498 20.1421 19.498 17.8101V13.1211C19.498 10.6551 18.079 9.09209 15.784 8.93209Z"
      fill="#52525B"
    />
  </symbol> -->

  <symbol
    id="engine-departurecalendar-icon"
    width="24"
    height="24"
    viewBox="0 0 24 24"
    fill="none"
    xmlns="http://www.w3.org/2000/svg"
  >
    <path
      d="M4.48828 9.66614H20.5297"
      stroke="#71717A"
      stroke-width="1.5"
      stroke-linecap="round"
      stroke-linejoin="round"
    />
    <path
      d="M16.1426 3V5.96174"
      stroke="#71717A"
      stroke-width="1.5"
      stroke-linecap="round"
      stroke-linejoin="round"
    />
    <path
      d="M8.87134 3V5.96174"
      stroke="#71717A"
      stroke-width="1.5"
      stroke-linecap="round"
      stroke-linejoin="round"
    />
    <path
      fill-rule="evenodd"
      clip-rule="evenodd"
      d="M16.3184 4.42188H8.69804C6.05446 4.42188 4.4043 5.89399 4.4043 8.59984V16.7456C4.4043 19.4943 6.05446 21.0004 8.69804 21.0004H16.3106C18.962 21.0004 20.6044 19.5205 20.6044 16.8137V8.59984C20.6121 5.89399 18.9698 4.42188 16.3184 4.42188Z"
      stroke="#71717A"
      stroke-width="1.5"
      stroke-linecap="round"
      stroke-linejoin="round"
    />
    <path
      d="M8.49414 13.3711H8.50414"
      stroke="#71717A"
      stroke-width="1.5"
      stroke-linecap="round"
      stroke-linejoin="round"
    />
    <path
      d="M8.49414 16.8477H8.50414"
      stroke="#71717A"
      stroke-width="1.5"
      stroke-linecap="round"
      stroke-linejoin="round"
    />
    <path
      d="M12.5137 13.3711H12.5237"
      stroke="#71717A"
      stroke-width="1.5"
      stroke-linecap="round"
      stroke-linejoin="round"
    />
    <path
      d="M12.5137 16.8477H12.5237"
      stroke="#71717A"
      stroke-width="1.5"
      stroke-linecap="round"
      stroke-linejoin="round"
    />
    <path
      d="M16.5234 13.3711H16.5334"
      stroke="#71717A"
      stroke-width="1.5"
      stroke-linecap="round"
      stroke-linejoin="round"
    />
  </symbol>
  <symbol
    id="engine-returncalendar-icon"
    width="24"
    height="24"
    viewBox="0 0 24 24"
    fill="none"
    xmlns="http://www.w3.org/2000/svg"
  >
    <path
      d="M4.48828 9.66614H20.5297"
      stroke="#71717A"
      stroke-width="1.5"
      stroke-linecap="round"
      stroke-linejoin="round"
    />
    <path
      d="M16.1426 3V5.96174"
      stroke="#71717A"
      stroke-width="1.5"
      stroke-linecap="round"
      stroke-linejoin="round"
    />
    <path
      d="M8.87134 3V5.96174"
      stroke="#71717A"
      stroke-width="1.5"
      stroke-linecap="round"
      stroke-linejoin="round"
    />
    <path
      fill-rule="evenodd"
      clip-rule="evenodd"
      d="M16.3184 4.42188H8.69804C6.05446 4.42188 4.4043 5.89399 4.4043 8.59984V16.7456C4.4043 19.4943 6.05446 21.0004 8.69804 21.0004H16.3106C18.962 21.0004 20.6044 19.5205 20.6044 16.8137V8.59984C20.6121 5.89399 18.9698 4.42188 16.3184 4.42188Z"
      stroke="#71717A"
      stroke-width="1.5"
      stroke-linecap="round"
      stroke-linejoin="round"
    />
    <path
      d="M8.49414 13.3711H8.50414"
      stroke="#71717A"
      stroke-width="1.5"
      stroke-linecap="round"
      stroke-linejoin="round"
    />
    <path
      d="M8.49414 16.8477H8.50414"
      stroke="#71717A"
      stroke-width="1.5"
      stroke-linecap="round"
      stroke-linejoin="round"
    />
    <path
      d="M12.5137 13.3711H12.5237"
      stroke="#71717A"
      stroke-width="1.5"
      stroke-linecap="round"
      stroke-linejoin="round"
    />
    <path
      d="M12.5137 16.8477H12.5237"
      stroke="#71717A"
      stroke-width="1.5"
      stroke-linecap="round"
      stroke-linejoin="round"
    />
    <path
      d="M16.5234 13.3711H16.5334"
      stroke="#71717A"
      stroke-width="1.5"
      stroke-linecap="round"
      stroke-linejoin="round"
    />
  </symbol>
  <symbol
    id="engine-calendar-icon"
    width="24"
    height="24"
    viewBox="0 0 24 24"
    fill="none"
    xmlns="http://www.w3.org/2000/svg"
  >
    <path
      d="M4.48828 9.66602H20.5297"
      stroke="#18181B"
      stroke-width="1.5"
      stroke-linecap="round"
      stroke-linejoin="round"
    />
    <path
      d="M16.1445 3V5.96174"
      stroke="#18181B"
      stroke-width="1.5"
      stroke-linecap="round"
      stroke-linejoin="round"
    />
    <path
      d="M8.87109 3V5.96174"
      stroke="#18181B"
      stroke-width="1.5"
      stroke-linecap="round"
      stroke-linejoin="round"
    />
    <path
      fill-rule="evenodd"
      clip-rule="evenodd"
      d="M16.3203 4.42188H8.69999C6.05641 4.42188 4.40625 5.89399 4.40625 8.59984V16.7456C4.40625 19.4943 6.05641 21.0004 8.69999 21.0004H16.3125C18.9639 21.0004 20.6063 19.5205 20.6063 16.8137V8.59984C20.614 5.89399 18.9717 4.42188 16.3203 4.42188Z"
      stroke="#18181B"
      stroke-width="1.5"
      stroke-linecap="round"
      stroke-linejoin="round"
    />
    <path
      d="M8.49219 13.3711H8.50219"
      stroke="#18181B"
      stroke-width="1.5"
      stroke-linecap="round"
      stroke-linejoin="round"
    />
    <path
      d="M8.49219 16.8477H8.50219"
      stroke="#18181B"
      stroke-width="1.5"
      stroke-linecap="round"
      stroke-linejoin="round"
    />
    <path
      d="M12.5156 13.3711H12.5256"
      stroke="#18181B"
      stroke-width="1.5"
      stroke-linecap="round"
      stroke-linejoin="round"
    />
    <path
      d="M12.5156 16.8477H12.5256"
      stroke="#18181B"
      stroke-width="1.5"
      stroke-linecap="round"
      stroke-linejoin="round"
    />
    <path
      d="M16.5234 13.3711H16.5334"
      stroke="#18181B"
      stroke-width="1.5"
      stroke-linecap="round"
      stroke-linejoin="round"
    />
  </symbol>

  <symbol
    id="engine-location-icon"
    width="24"
    height="24"
    viewBox="0 0 24 24"
    fill="none"
    xmlns="http://www.w3.org/2000/svg"
  >
    <path
      fill-rule="evenodd"
      clip-rule="evenodd"
      d="M13.7305 6.3383L14.0097 9.373C15.9498 9.3885 17.8481 9.4041 19.8242 9.4197C19.7872 10.057 19.8028 10.6602 19.7055 11.245C19.5926 11.927 19.0857 12.3425 18.4932 12.6295C17.1349 13.2892 15.7747 13.945 14.4009 14.5696C14.0525 14.7282 13.9445 14.9228 13.9504 15.2886C13.9669 16.3443 13.9805 17.401 13.9241 18.4537C13.8667 19.5376 13.2927 21 11.9996 21C10.7075 21 10.1334 19.5376 10.076 18.4537C10.0196 17.401 10.0332 16.3443 10.0497 15.2886C10.0556 14.9228 9.9466 14.7282 9.5992 14.5696C8.2244 13.945 6.8642 13.2892 5.5059 12.6295C4.9134 12.3425 4.4075 11.927 4.2936 11.245C4.1963 10.6602 4.2119 10.057 4.1749 9.4197C6.151 9.4041 9.9904 9.373 9.9904 9.373L10.2871 6.3383L8.3967 4.8019L8.3967 3L11.9996 3.901L15.6035 3L15.6035 4.8019L13.7305 6.3383Z"
      stroke="#18181B"
      stroke-width="1.5"
      stroke-linecap="round"
      stroke-linejoin="round"
    />
  </symbol>

  <symbol
    id="engine-passenger-icon"
    width="24"
    height="24"
    viewBox="0 0 24 24"
    fill="none"
    xmlns="http://www.w3.org/2000/svg"
  >
    <path
      d="M7.07028 20.5008C5.55126 20.5008 4.63334 19.5152 4.56836 18.1424C4.56836 15.348 7.59287 14.3841 12.1499 14.3516C16.7152 14.3949 19.7478 15.3588 19.7315 18.1424C19.6584 19.5152 18.7459 20.5008 17.2296 20.5008H7.07028Z"
      stroke="#71717A"
      stroke-width="1.5"
      stroke-miterlimit="10"
    />
    <path
      d="M12.1576 11.1628C14.2736 11.1628 15.989 9.44744 15.989 7.33141C15.989 5.21538 14.2736 3.5 12.1576 3.5C10.0416 3.5 8.32617 5.21538 8.32617 7.33141C8.32617 9.44744 10.0416 11.1628 12.1576 11.1628Z"
      stroke="#71717A"
      stroke-width="1.5"
      stroke-miterlimit="10"
    />
  </symbol>

  <symbol
    id="engine-flightclass-icon"
    width="25"
    height="24"
    viewBox="0 0 25 24"
    fill="none"
    xmlns="http://www.w3.org/2000/svg"
  >
    <path
      d="M11.4697 9.18359L8.21973 14.8127"
      stroke="#71717A"
      stroke-width="1.5"
      stroke-linecap="round"
      stroke-linejoin="round"
    />
    <path
      d="M11.7131 14.0722L10.5089 10.8477L7.11426 11.417"
      stroke="#71717A"
      stroke-width="1.5"
      stroke-linecap="round"
      stroke-linejoin="round"
    />
    <path
      d="M9.67697 15.6558L6.76172 13.9727"
      stroke="#71717A"
      stroke-width="1.5"
      stroke-linecap="round"
      stroke-linejoin="round"
    />
    <path
      d="M11.1779 4.71094H10.7C7.30589 4.71094 5.60883 4.71094 4.55441 5.76535C3.5 6.81977 3.5 8.51683 3.5 11.9109V12.0896C3.5 15.4837 3.5 17.1808 4.55441 18.2352C5.60883 19.2896 7.30589 19.2896 10.7 19.2896H11.1766C11.5014 19.2896 11.6637 19.2896 11.7652 19.2211C11.8666 19.1525 11.9528 18.9386 12.125 18.5106C12.4176 17.7837 13.1087 17.2721 13.9453 17.2728H14.0048C14.7157 17.2978 15.3248 17.6999 15.6456 18.2802C15.8838 18.7111 16.0029 18.9266 16.0374 18.9722C16.2322 19.2298 16.242 19.2356 16.5617 19.2815C16.6183 19.2896 16.7244 19.2896 16.9367 19.2896C17.832 19.2896 18.2797 19.2896 18.651 19.2104C20.0397 18.9142 21.1246 17.8293 21.4208 16.4406C21.5 16.0693 21.5 15.6216 21.5 14.7263V9.28C21.5 8.37931 21.5 7.92896 21.4198 7.55549C21.1226 6.17037 20.0406 5.08837 18.6554 4.79109C18.282 4.71094 17.8316 4.71094 16.9309 4.71094C16.7213 4.71094 16.6165 4.71094 16.5588 4.71941C16.2473 4.76512 16.2169 4.78341 16.0304 5.03704C15.9958 5.08408 15.889 5.28512 15.6754 5.68721C15.345 6.30917 14.704 6.73018 13.9435 6.72956C13.1053 6.72956 12.4167 6.21926 12.1264 5.49224C11.955 5.06315 11.8693 4.8486 11.7677 4.77977C11.6661 4.71094 11.5033 4.71094 11.1779 4.71094Z"
      stroke="#71717A"
      stroke-width="1.5"
      stroke-linecap="round"
      stroke-linejoin="round"
    />
    <path
      d="M18.1211 13.8359H21.5"
      stroke="#71717A"
      stroke-width="1.5"
      stroke-linecap="round"
      stroke-linejoin="round"
    />
    <path
      d="M16.543 10.1797H21.5"
      stroke="#71717A"
      stroke-width="1.5"
      stroke-linecap="round"
      stroke-linejoin="round"
    />
  </symbol>
  <symbol
    id="engine-exchange-icon"
    width="24"
    height="24"
    viewBox="0 0 24 24"
    fill="none"
    xmlns="http://www.w3.org/2000/svg"
  >
    <path
      d="M3.83535 16.8396L17.4531 16.8396"
      stroke="white"
      stroke-width="1.5"
      stroke-linecap="round"
      stroke-linejoin="round"
    />
    <path
      d="M7.93164 20.9173L3.83497 16.8395L7.93164 12.7617"
      stroke="white"
      stroke-width="1.5"
      stroke-linecap="round"
      stroke-linejoin="round"
    />
    <path
      d="M20.167 6.91113L6.54921 6.91113"
      stroke="white"
      stroke-width="1.5"
      stroke-linecap="round"
      stroke-linejoin="round"
    />
    <path
      d="M16.0708 2.8335L20.1675 6.91127L16.0708 10.9891"
      stroke="white"
      stroke-width="1.5"
      stroke-linecap="round"
      stroke-linejoin="round"
    />
  </symbol>

  <symbol
    id="engine-search-icon"
    width="24"
    height="24"
    viewBox="0 0 24 24"
    fill="none"
    xmlns="http://www.w3.org/2000/svg"
  >
    <path
      d="M18.5577 18.5963C19.0086 18.1484 19.7315 18.1484 20.1824 18.5963L23.1628 21.0022H23.2146C23.8176 21.6116 23.8176 22.5998 23.2146 23.2092C22.6116 23.8187 21.634 23.8187 21.031 23.2092L18.5577 20.3746L18.4638 20.2687C18.289 20.0473 18.1924 19.7714 18.1924 19.4854C18.1924 19.1518 18.3238 18.8319 18.5577 18.5963ZM10.3407 0.333008C12.9948 0.333008 15.5402 1.39868 17.4169 3.2956C19.2937 5.19251 20.348 7.76528 20.348 10.4479C20.348 16.0342 15.8676 20.5628 10.3407 20.5628C4.81389 20.5628 0.333496 16.0342 0.333496 10.4479C0.333496 4.86161 4.81389 0.333008 10.3407 0.333008Z"
      fill="white"
    />
  </symbol>

  <symbol
    id="engine-departure-icon"
    width="25"
    height="24"
    viewBox="0 0 25 24"
    fill="none"
    xmlns="http://www.w3.org/2000/svg"
  >
    <path
      fill-rule="evenodd"
      clip-rule="evenodd"
      d="M14.2305 6.3383L14.5097 9.373C16.4498 9.3885 18.3481 9.4041 20.3242 9.4197C20.2872 10.057 20.3028 10.6602 20.2055 11.245C20.0926 11.927 19.5857 12.3425 18.9932 12.6295C17.6349 13.2892 16.2747 13.945 14.9009 14.5696C14.5525 14.7282 14.4445 14.9228 14.4504 15.2886C14.4669 16.3443 14.4805 17.401 14.4241 18.4537C14.3667 19.5376 13.7927 21 12.4996 21C11.2075 21 10.6334 19.5376 10.576 18.4537C10.5196 17.401 10.5332 16.3443 10.5497 15.2886C10.5556 14.9228 10.4466 14.7282 10.0992 14.5696C8.7244 13.945 7.3642 13.2892 6.0059 12.6295C5.4134 12.3425 4.9075 11.927 4.7936 11.245C4.6963 10.6602 4.7119 10.057 4.6749 9.4197C6.651 9.4041 10.4904 9.373 10.4904 9.373L10.7871 6.3383L8.8967 4.8019L8.8967 3L12.4996 3.901L16.1035 3L16.1035 4.8019L14.2305 6.3383Z"
      stroke="#18181B"
      stroke-width="1.5"
      stroke-linecap="round"
      stroke-linejoin="round"
    />
  </symbol>

  <symbol
    id="engine-departurehotel-icon"
    width="24"
    height="24"
    viewBox="0 0 24 24"
    fill="none"
    xmlns="http://www.w3.org/2000/svg"
  >
    <path
      fill-rule="evenodd"
      clip-rule="evenodd"
      d="M12.2496 3.75C8.50731 3.75 5.47363 6.78356 5.47363 10.5269C5.47363 12.9304 6.90881 15.3744 8.59566 17.2736C9.42795 18.2107 10.2928 18.9823 11.0114 19.5136C11.3715 19.7799 11.6836 19.9775 11.9274 20.1048C12.115 20.2027 12.2168 20.2346 12.2496 20.245C12.2823 20.2346 12.3842 20.2027 12.5717 20.1048C12.8155 19.9775 13.1276 19.7799 13.4878 19.5136C14.2063 18.9823 15.0712 18.2107 15.9035 17.2736C17.5903 15.3744 19.0255 12.9304 19.0255 10.5269C19.0255 6.78356 15.9918 3.75 12.2496 3.75ZM3.97363 10.5269C3.97363 5.95525 7.67876 2.25 12.2496 2.25C16.8204 2.25 20.5255 5.95525 20.5255 10.5269C20.5255 13.4787 18.8 16.2712 17.025 18.2697C16.1264 19.2815 15.1851 20.1241 14.3796 20.7197C13.9777 21.0169 13.5983 21.261 13.2658 21.4345C12.9697 21.5891 12.5976 21.75 12.2496 21.75C11.9016 21.75 11.5295 21.5891 11.2333 21.4345C10.9008 21.261 10.5215 21.0169 10.1196 20.7197C9.31411 20.1241 8.37277 19.2815 7.47415 18.2697C5.69916 16.2712 3.97363 13.4787 3.97363 10.5269ZM8.99052 10.4635C8.99052 8.66354 10.4493 7.20513 12.2498 7.20513C14.0495 7.20513 15.5081 8.66373 15.5081 10.4635C15.5081 12.2628 14.0499 13.7228 12.2498 13.7228C10.4489 13.7228 8.99052 12.263 8.99052 10.4635ZM12.2498 8.70513C11.2774 8.70513 10.4905 9.49234 10.4905 10.4635C10.4905 11.4349 11.2777 12.2228 12.2498 12.2228C13.2207 12.2228 14.0081 11.4351 14.0081 10.4635C14.0081 9.49216 13.2211 8.70513 12.2498 8.70513Z"
      fill="#71717A"
    />
  </symbol>

  <symbol
    id="engine-departureflighthotel-icon"
    width="24"
    height="24"
    viewBox="0 0 24 24"
    fill="none"
    xmlns="http://www.w3.org/2000/svg"
  >
    <path
      d="M7.33335 15.8135C6.42097 15.7953 5.53544 15.5014 4.79328 14.9704C4.05112 14.4394 3.48707 13.6962 3.17533 12.8385C3.16733 12.8225 3.15935 12.8055 3.15235 12.7895V12.7825C3.13435 12.7415 3.11533 12.6995 3.09833 12.6565C3.00433 12.4365 2.64433 11.5675 2.55533 11.3475C2.5179 11.2565 2.49878 11.159 2.49903 11.0606C2.49927 10.9622 2.51891 10.8648 2.5568 10.774C2.59468 10.6832 2.65006 10.6007 2.71982 10.5313C2.78958 10.4619 2.87231 10.4069 2.96332 10.3695C3.05433 10.3321 3.15181 10.313 3.25022 10.3132C3.34862 10.3134 3.44602 10.3331 3.53684 10.371C3.62765 10.4088 3.71011 10.4642 3.77951 10.534C3.84892 10.6038 3.90392 10.6865 3.94135 10.7775C3.99235 10.8995 4.12532 11.2215 4.24832 11.5205L6.03833 10.7625C6.69333 10.4835 7.35232 10.2035 7.91132 9.96851L5.84134 4.95351C5.80253 4.85955 5.78323 4.75868 5.78461 4.65703C5.78599 4.55539 5.808 4.45508 5.84934 4.3622C5.89068 4.26933 5.95048 4.18584 6.02509 4.11678C6.09969 4.04773 6.18754 3.99456 6.28333 3.96051C6.47733 3.89151 6.66633 3.81851 6.85233 3.74751C7.28862 3.56879 7.73627 3.41913 8.19232 3.29951C8.64471 3.20942 9.11242 3.23357 9.55313 3.36976C9.99384 3.50596 10.3937 3.7499 10.7163 4.07951C11.9263 5.13851 13.1353 6.20251 14.3163 7.29151C15.3023 6.90051 16.4313 6.40351 17.5483 5.99951C18.552 5.59313 19.6748 5.596 20.6763 6.00751C20.9784 6.1639 21.244 6.38239 21.4556 6.64866C21.6672 6.91494 21.8201 7.22296 21.9043 7.55251C22.3633 9.18451 21.1043 10.5465 19.7453 11.1215C16.6973 12.4065 13.0943 13.9155 9.48133 15.3665C8.8004 15.6512 8.07131 15.8029 7.33335 15.8135ZM4.89234 12.8745C5.80534 14.3105 7.15632 14.6805 8.92032 13.9745C12.5203 12.5285 16.1203 11.0225 19.1593 9.74051C19.8063 9.46751 20.6843 8.76751 20.4593 7.95851C20.4305 7.82757 20.3733 7.70455 20.2917 7.59812C20.2102 7.49169 20.1063 7.40444 19.9873 7.34251C19.358 7.12127 18.6683 7.14591 18.0563 7.41151C17.0653 7.76951 16.1253 8.17751 14.9993 8.67351C14.7239 8.81676 14.4095 8.86708 14.1032 8.81698C13.7968 8.76687 13.5148 8.61903 13.2993 8.39551C12.1253 7.31551 10.9263 6.26051 9.72534 5.20851C9.14534 4.70051 8.79034 4.70151 8.53934 4.75951C8.19279 4.85026 7.85241 4.96316 7.52033 5.09751L9.58032 10.0875C9.65617 10.2709 9.65614 10.4769 9.5802 10.6603C9.50427 10.8437 9.35864 10.9894 9.17533 11.0655C8.52733 11.3345 7.57535 11.7405 6.62235 12.1435C6.01635 12.4045 5.41334 12.6555 4.89234 12.8745Z"
      fill="#71717A"
    />
    <path
      d="M19.2892 20.7539H5.2002C5.00128 20.7539 4.81054 20.6749 4.66989 20.5342C4.52924 20.3936 4.4502 20.2028 4.4502 20.0039C4.4502 19.805 4.52924 19.6142 4.66989 19.4736C4.81054 19.3329 5.00128 19.2539 5.2002 19.2539H19.2892C19.4881 19.2539 19.6789 19.3329 19.8195 19.4736C19.9602 19.6142 20.0392 19.805 20.0392 20.0039C20.0392 20.2028 19.9602 20.3936 19.8195 20.5342C19.6789 20.6749 19.4881 20.7539 19.2892 20.7539Z"
      fill="#71717A"
    />
  </symbol>

  <symbol
    id="engine-departureflight-icon"
    width="24"
    height="24"
    viewBox="0 0 24 24"
    fill="none"
    xmlns="http://www.w3.org/2000/svg"
  >
    <path
      d="M7.33335 15.8135C6.42097 15.7953 5.53544 15.5014 4.79328 14.9704C4.05112 14.4394 3.48707 13.6962 3.17533 12.8385C3.16733 12.8225 3.15935 12.8055 3.15235 12.7895V12.7825C3.13435 12.7415 3.11533 12.6995 3.09833 12.6565C3.00433 12.4365 2.64433 11.5675 2.55533 11.3475C2.5179 11.2565 2.49878 11.159 2.49903 11.0606C2.49927 10.9622 2.51891 10.8648 2.5568 10.774C2.59468 10.6832 2.65006 10.6007 2.71982 10.5313C2.78958 10.4619 2.87231 10.4069 2.96332 10.3695C3.05433 10.3321 3.15181 10.313 3.25022 10.3132C3.34862 10.3134 3.44602 10.3331 3.53684 10.371C3.62765 10.4088 3.71011 10.4642 3.77951 10.534C3.84892 10.6038 3.90392 10.6865 3.94135 10.7775C3.99235 10.8995 4.12532 11.2215 4.24832 11.5205L6.03833 10.7625C6.69333 10.4835 7.35232 10.2035 7.91132 9.96851L5.84134 4.95351C5.80253 4.85955 5.78323 4.75868 5.78461 4.65703C5.78599 4.55539 5.808 4.45508 5.84934 4.3622C5.89068 4.26933 5.95048 4.18584 6.02509 4.11678C6.09969 4.04773 6.18754 3.99456 6.28333 3.96051C6.47733 3.89151 6.66633 3.81851 6.85233 3.74751C7.28862 3.56879 7.73627 3.41913 8.19232 3.29951C8.64471 3.20942 9.11242 3.23357 9.55313 3.36976C9.99384 3.50596 10.3937 3.7499 10.7163 4.07951C11.9263 5.13851 13.1353 6.20251 14.3163 7.29151C15.3023 6.90051 16.4313 6.40351 17.5483 5.99951C18.552 5.59313 19.6748 5.596 20.6763 6.00751C20.9784 6.1639 21.244 6.38239 21.4556 6.64866C21.6672 6.91494 21.8201 7.22296 21.9043 7.55251C22.3633 9.18451 21.1043 10.5465 19.7453 11.1215C16.6973 12.4065 13.0943 13.9155 9.48133 15.3665C8.8004 15.6512 8.07131 15.8029 7.33335 15.8135ZM4.89234 12.8745C5.80534 14.3105 7.15632 14.6805 8.92032 13.9745C12.5203 12.5285 16.1203 11.0225 19.1593 9.74051C19.8063 9.46751 20.6843 8.76751 20.4593 7.95851C20.4305 7.82757 20.3733 7.70455 20.2917 7.59812C20.2102 7.49169 20.1063 7.40444 19.9873 7.34251C19.358 7.12127 18.6683 7.14591 18.0563 7.41151C17.0653 7.76951 16.1253 8.17751 14.9993 8.67351C14.7239 8.81676 14.4095 8.86708 14.1032 8.81698C13.7968 8.76687 13.5148 8.61903 13.2993 8.39551C12.1253 7.31551 10.9263 6.26051 9.72534 5.20851C9.14534 4.70051 8.79034 4.70151 8.53934 4.75951C8.19279 4.85026 7.85241 4.96316 7.52033 5.09751L9.58032 10.0875C9.65617 10.2709 9.65614 10.4769 9.5802 10.6603C9.50427 10.8437 9.35864 10.9894 9.17533 11.0655C8.52733 11.3345 7.57535 11.7405 6.62235 12.1435C6.01635 12.4045 5.41334 12.6555 4.89234 12.8745Z"
      fill="#71717A"
    />
    <path
      d="M19.2892 20.7539H5.2002C5.00128 20.7539 4.81054 20.6749 4.66989 20.5342C4.52924 20.3936 4.4502 20.2028 4.4502 20.0039C4.4502 19.805 4.52924 19.6142 4.66989 19.4736C4.81054 19.3329 5.00128 19.2539 5.2002 19.2539H19.2892C19.4881 19.2539 19.6789 19.3329 19.8195 19.4736C19.9602 19.6142 20.0392 19.805 20.0392 20.0039C20.0392 20.2028 19.9602 20.3936 19.8195 20.5342C19.6789 20.6749 19.4881 20.7539 19.2892 20.7539Z"
      fill="#71717A"
    />
  </symbol>
  <symbol
    id="engine-destination-icon"
    width="25"
    height="24"
    viewBox="0 0 25 24"
    fill="none"
    xmlns="http://www.w3.org/2000/svg"
  >
    <path
      d="M5.47266 10.5269C5.47266 15.8822 11.794 21 12.9986 21C14.2031 21 20.5245 15.8822 20.5245 10.5269C20.5245 6.36941 17.1551 3 12.9986 3C8.84207 3 5.47266 6.36941 5.47266 10.5269Z"
      stroke="#18181B"
      stroke-width="1.5"
      stroke-linecap="round"
      stroke-linejoin="round"
    />
    <path
      fill-rule="evenodd"
      clip-rule="evenodd"
      d="M15.506 10.4654C15.506 9.07984 14.3831 7.95703 12.9976 7.95703C11.6111 7.95703 10.4883 9.07984 10.4883 10.4654C10.4883 11.8509 11.6111 12.9747 12.9976 12.9747C14.3831 12.9747 15.506 11.8509 15.506 10.4654Z"
      stroke="#18181B"
      stroke-width="1.5"
      stroke-linecap="round"
      stroke-linejoin="round"
    />
  </symbol>

  <symbol
    id="engine-destinationflight-icon"
    width="24"
    height="24"
    viewBox="0 0 24 24"
    fill="none"
    xmlns="http://www.w3.org/2000/svg"
  >
    <path
      d="M4.23489 6.64962C5.50267 7.17308 8.02851 8.18108 9.3177 8.7133C10.1097 6.80724 10.8852 4.94205 11.6918 3C12.3047 3.29092 12.906 3.51762 13.4441 3.84746C14.0707 4.23276 14.2769 4.8973 14.3236 5.59686C14.4297 7.19935 14.5319 8.80378 14.598 10.4082C14.6146 10.8149 14.7625 10.9998 15.1264 11.1409C16.1733 11.5466 17.2212 11.9562 18.236 12.433C19.4104 12.9837 20.6704 14.1804 19.8881 15.5728C19.2702 16.6722 17.8001 16.6644 16.7648 16.2431C13.3312 14.8469 9.90149 13.439 6.49316 11.9815C4.06462 10.9443 3.30084 8.96627 4.28938 6.50757C4.37889 6.2867 4.73889 5.4227 4.82938 5.20378"
      stroke="#71717A"
      stroke-width="1.5"
      stroke-linecap="round"
      stroke-linejoin="round"
    />
    <path
      d="M5.23633 21H19.3619"
      stroke="#71717A"
      stroke-width="1.5"
      stroke-linecap="round"
      stroke-linejoin="round"
    />
  </symbol>

  <symbol
    id="engine-destinationflighthotel-icon"
    width="24"
    height="24"
    viewBox="0 0 24 24"
    fill="none"
    xmlns="http://www.w3.org/2000/svg"
  >
    <path
      d="M4.23489 6.64962C5.50267 7.17308 8.02851 8.18108 9.3177 8.7133C10.1097 6.80724 10.8852 4.94205 11.6918 3C12.3047 3.29092 12.906 3.51762 13.4441 3.84746C14.0707 4.23276 14.2769 4.8973 14.3236 5.59686C14.4297 7.19935 14.5319 8.80378 14.598 10.4082C14.6146 10.8149 14.7625 10.9998 15.1264 11.1409C16.1733 11.5466 17.2212 11.9562 18.236 12.433C19.4104 12.9837 20.6704 14.1804 19.8881 15.5728C19.2702 16.6722 17.8001 16.6644 16.7648 16.2431C13.3312 14.8469 9.90149 13.439 6.49316 11.9815C4.06462 10.9443 3.30084 8.96627 4.28938 6.50757C4.37889 6.2867 4.73889 5.4227 4.82938 5.20378"
      stroke="#71717A"
      stroke-width="1.5"
      stroke-linecap="round"
      stroke-linejoin="round"
    />
    <path
      d="M5.23633 21H19.3619"
      stroke="#71717A"
      stroke-width="1.5"
      stroke-linecap="round"
      stroke-linejoin="round"
    />
  </symbol>

  <symbol
    id="calendars-icon"
    width="24"
    height="24"
    viewBox="0 0 24 24"
    fill="none"
    xmlns="http://www.w3.org/2000/svg"
  >
    <path
      d="M3.09375 9.40234H20.9177"
      stroke="white"
      stroke-width="1.5"
      stroke-linecap="round"
      stroke-linejoin="round"
    />
    <path
      d="M16.4453 13.3086H16.4546"
      stroke="white"
      stroke-width="1.5"
      stroke-linecap="round"
      stroke-linejoin="round"
    />
    <path
      d="M12.0078 13.3086H12.0171"
      stroke="white"
      stroke-width="1.5"
      stroke-linecap="round"
      stroke-linejoin="round"
    />
    <path
      d="M7.55469 13.3086H7.56395"
      stroke="white"
      stroke-width="1.5"
      stroke-linecap="round"
      stroke-linejoin="round"
    />
    <path
      d="M16.4453 17.1953H16.4546"
      stroke="white"
      stroke-width="1.5"
      stroke-linecap="round"
      stroke-linejoin="round"
    />
    <path
      d="M12.0078 17.1953H12.0171"
      stroke="white"
      stroke-width="1.5"
      stroke-linecap="round"
      stroke-linejoin="round"
    />
    <path
      d="M7.55469 17.1953H7.56395"
      stroke="white"
      stroke-width="1.5"
      stroke-linecap="round"
      stroke-linejoin="round"
    />
    <path
      d="M16.0469 2V5.29078"
      stroke="white"
      stroke-width="1.5"
      stroke-linecap="round"
      stroke-linejoin="round"
    />
    <path
      d="M7.96875 2V5.29078"
      stroke="white"
      stroke-width="1.5"
      stroke-linecap="round"
      stroke-linejoin="round"
    />
    <path
      fill-rule="evenodd"
      clip-rule="evenodd"
      d="M16.2383 3.57812H7.77096C4.83427 3.57812 3 5.21406 3 8.22115V17.2708C3 20.3252 4.83427 21.9989 7.77096 21.9989H16.229C19.175 21.9989 21 20.3535 21 17.3464V8.22115C21.0092 5.21406 19.1842 3.57812 16.2383 3.57812Z"
      stroke="white"
      stroke-width="1.5"
      stroke-linecap="round"
      stroke-linejoin="round"
    />
  </symbol>

  <symbol
    id="engine-close-icon"
    width="13"
    height="13"
    viewBox="0 0 13 13"
    fill="none"
    xmlns="http://www.w3.org/2000/svg"
  >
    <path
      fill-rule="evenodd"
      clip-rule="evenodd"
      d="M7.81295 6.50009L12.7277 1.58528C13.0908 1.22221 13.0908 0.635366 12.7277 0.2723C12.3646 -0.0907666 11.7778 -0.0907666 11.4148 0.2723L6.5 5.18711L1.58525 0.2723C1.22219 -0.0907666 0.635353 -0.0907666 0.272294 0.2723C-0.0907647 0.635366 -0.0907647 1.22221 0.272294 1.58528L5.18704 6.50009L0.272294 11.415C-0.0907647 11.778 -0.0907647 12.3649 0.272294 12.7279C0.453359 12.909 0.691065 13 0.928771 13C1.16648 13 1.40418 12.909 1.58525 12.7279L6.5 7.81317L11.4148 12.7279C11.5958 12.909 11.8335 13 12.0712 13C12.3089 13 12.5466 12.909 12.7277 12.7279C13.0908 12.3649 13.0908 11.778 12.7277 11.415L7.81295 6.50009Z"
      fill="#F39796"
    />
  </symbol>

  <symbol
    id="engine-removeroute-icon"
    width="13"
    height="13"
    viewBox="0 0 13 13"
    fill="none"
    xmlns="http://www.w3.org/2000/svg"
  >
    <path
      fill-rule="evenodd"
      clip-rule="evenodd"
      d="M7.81295 6.50009L12.7277 1.58528C13.0908 1.22221 13.0908 0.635366 12.7277 0.2723C12.3646 -0.0907666 11.7778 -0.0907666 11.4148 0.2723L6.5 5.18711L1.58525 0.2723C1.22219 -0.0907666 0.635353 -0.0907666 0.272294 0.2723C-0.0907647 0.635366 -0.0907647 1.22221 0.272294 1.58528L5.18704 6.50009L0.272294 11.415C-0.0907647 11.778 -0.0907647 12.3649 0.272294 12.7279C0.453359 12.909 0.691065 13 0.928771 13C1.16648 13 1.40418 12.909 1.58525 12.7279L6.5 7.81317L11.4148 12.7279C11.5958 12.909 11.8335 13 12.0712 13C12.3089 13 12.5466 12.909 12.7277 12.7279C13.0908 12.3649 13.0908 11.778 12.7277 11.415L7.81295 6.50009Z"
      fill="#F39796"
    />
  </symbol>

  <symbol
    id="tour-search-icon"
    width="28"
    height="28"
    viewBox="0 0 28 28"
    fill="none"
    xmlns="http://www.w3.org/2000/svg"
  >
    <path
      fill-rule="evenodd"
      clip-rule="evenodd"
      d="M19.8286 17.1096L18.2493 21.3413C18.0318 21.924 17.6921 22.4599 17.2752 22.0184C17.1512 21.887 17.0458 21.7108 17.0654 21.5172L17.4137 18.0829C17.4158 18.0627 17.4277 18.0464 17.4463 18.0383L19.7559 17.0404C19.7764 17.0316 19.7989 17.0356 19.8151 17.051C19.8313 17.0664 19.8364 17.0886 19.8286 17.1096ZM16.8337 25.7957V26.9721C16.8337 27.0299 16.8822 27.0785 16.94 27.0785H18.2518C18.3096 27.0785 18.3582 27.0299 18.3582 26.9721V25.7957C18.3582 25.7657 18.3336 25.7412 18.3036 25.7412H16.8883C16.8582 25.7412 16.8337 25.7657 16.8337 25.7957ZM9.64139 25.7957V26.9721C9.64139 27.0299 9.68999 27.0785 9.74773 27.0785H11.0595C11.1173 27.0785 11.1659 27.0299 11.1659 26.9721V25.7957C11.1659 25.7657 11.1413 25.7412 11.1113 25.7412H9.69598C9.66586 25.7412 9.64139 25.7657 9.64139 25.7957ZM27.3482 8.25991C26.6134 6.48941 22.5635 7.09001 20.5533 7.49976C20.5305 7.50441 20.5139 7.52188 20.5103 7.54479C20.5067 7.56775 20.5173 7.58942 20.5375 7.60079C20.7574 7.72427 20.952 7.88829 21.111 8.08323C21.124 8.09913 21.1432 8.10613 21.1633 8.10238C22.4555 7.86074 23.5902 7.74672 24.5058 7.76907C27.0415 7.83095 27.4193 8.8082 25.6677 10.6407C25.1887 11.1418 24.5682 11.6757 23.8275 12.2264C23.8113 12.2384 23.8034 12.2568 23.8059 12.2767C23.8083 12.2967 23.8202 12.3126 23.8388 12.3205L24.4752 12.5894C24.4938 12.5972 24.5136 12.5947 24.5297 12.5824C25.1818 12.0808 25.7371 11.5924 26.1805 11.1285C27.225 10.0358 27.6711 9.03803 27.3482 8.25991ZM23.2065 12.6701C22.9559 12.595 22.7024 12.561 22.449 12.5683C21.8589 12.5852 21.4793 12.8001 20.9835 13.0498C20.9661 13.0585 20.9469 13.0577 20.9304 13.0475C20.9138 13.0373 20.9044 13.0205 20.9044 13.001V9.83043C20.9044 8.73395 20.0087 7.83817 18.9122 7.83817H9.08738C7.99095 7.83817 7.09518 8.73395 7.09518 9.83043V19.4032C7.09518 19.4296 7.07692 19.4518 7.05105 19.4568C6.19324 19.6239 5.40022 19.7365 4.68925 19.7922C2.8207 19.9385 1.57302 19.7128 1.30545 19.0681C1.08346 18.5333 1.55902 17.7082 2.55996 16.7282C3.47343 15.8338 4.80758 14.8481 6.44994 13.8563C6.4668 13.8461 6.47632 13.8292 6.47632 13.8096V13.113C6.47632 13.0928 6.4663 13.0756 6.44882 13.0656C6.43135 13.0556 6.41136 13.0558 6.394 13.0661C4.56202 14.1488 3.0723 15.2365 2.06386 16.2238C0.847088 17.4152 0.305344 18.506 0.651368 19.3398C1.0516 20.3042 2.55447 20.6703 4.74189 20.499C6.42273 20.3673 8.76319 19.7739 10.9482 19.0952C10.9924 19.0815 11.0375 19.0704 11.0806 19.0539C11.7785 18.7867 10.3261 16.9385 9.96204 16.3492C9.95247 16.3336 9.95112 16.316 9.95829 16.2992C9.96546 16.2824 9.97901 16.2712 9.99687 16.2672C10.0151 16.2633 10.0346 16.2649 10.0576 16.2769L12.1969 17.3959C12.6723 17.6446 13.1618 17.8034 13.6401 17.5615L21.7387 13.4651C22.2138 13.2248 22.7121 13.2107 23.2084 13.4227L24.4901 13.9702C24.6027 14.0183 24.6021 14.1759 24.4906 14.2223C18.8698 16.651 13.1947 19.6403 7.13947 20.7955C7.11354 20.8004 7.09512 20.8226 7.09512 20.849V23.225C7.09512 24.3214 7.9909 25.2173 9.08732 25.2173H18.9121C20.0085 25.2173 20.9043 24.3215 20.9043 23.225V16.5801C20.9043 16.5578 20.9168 16.5388 20.9373 16.53L24.7705 14.8737C25.451 14.5805 25.4495 13.6104 24.7672 13.3189L23.9884 12.9863C23.9881 12.9862 23.9878 12.986 23.9875 12.9859L23.2112 12.6719C23.2097 12.6711 23.2082 12.6706 23.2065 12.6701ZM16.2802 7.16863V3.58923C16.2802 3.57416 16.2856 3.56123 16.2963 3.55059C16.3069 3.53995 16.3199 3.53463 16.335 3.53468C16.5885 3.53552 16.7998 3.53485 17.0152 3.31936C17.148 3.18664 17.2304 3.00319 17.2304 2.80108V1.65487C17.2304 1.25072 16.9011 0.921387 16.497 0.921387H11.5027C11.0986 0.921387 10.7692 1.25072 10.7692 1.65487V2.80108C10.7692 3.20518 11.0986 3.53451 11.5027 3.53451H11.6649C11.695 3.53451 11.7194 3.55904 11.7194 3.58906V7.16858C11.7194 7.19865 11.744 7.22312 11.774 7.22312H12.3744C12.4044 7.22312 12.4289 7.1986 12.4289 7.16858V3.58906C12.4289 3.55899 12.4534 3.53451 12.4834 3.53451H15.516C15.5461 3.53451 15.5706 3.55904 15.5706 3.58906V7.16858C15.5706 7.19865 15.5951 7.22312 15.6251 7.22312H16.2255C16.2557 7.22318 16.2802 7.19871 16.2802 7.16863ZM12.4736 13.8893C12.4728 13.8887 12.4721 13.8882 12.4712 13.8877C11.9667 13.5671 12.1822 13.1937 12.7765 13.3602C12.7772 13.3604 12.7778 13.3605 12.7786 13.3607L17.7456 14.5513C17.7684 14.5567 17.7845 14.575 17.7871 14.5982C17.7898 14.6215 17.7782 14.6428 17.7572 14.6532L15.3104 15.8692C15.292 15.8784 15.2714 15.8767 15.2545 15.8648L12.4736 13.8893Z"
      fill="#52525B"
    />
  </symbol>
  <symbol
    id="tour-search-icon-active"
    width="28"
    height="28"
    viewBox="0 0 28 28"
    fill="none"
    xmlns="http://www.w3.org/2000/svg"
  >
    <path
      fill-rule="evenodd"
      clip-rule="evenodd"
      d="M19.8286 17.1096L18.2493 21.3413C18.0318 21.924 17.6921 22.4599 17.2752 22.0184C17.1512 21.887 17.0458 21.7108 17.0654 21.5172L17.4137 18.0829C17.4158 18.0627 17.4277 18.0464 17.4463 18.0383L19.7559 17.0404C19.7764 17.0316 19.7989 17.0356 19.8151 17.051C19.8313 17.0664 19.8364 17.0886 19.8286 17.1096ZM16.8337 25.7957V26.9721C16.8337 27.0299 16.8822 27.0785 16.94 27.0785H18.2518C18.3096 27.0785 18.3582 27.0299 18.3582 26.9721V25.7957C18.3582 25.7657 18.3336 25.7412 18.3036 25.7412H16.8883C16.8582 25.7412 16.8337 25.7657 16.8337 25.7957ZM9.64139 25.7957V26.9721C9.64139 27.0299 9.68999 27.0785 9.74773 27.0785H11.0595C11.1173 27.0785 11.1659 27.0299 11.1659 26.9721V25.7957C11.1659 25.7657 11.1413 25.7412 11.1113 25.7412H9.69598C9.66586 25.7412 9.64139 25.7657 9.64139 25.7957ZM27.3482 8.25991C26.6134 6.48941 22.5635 7.09001 20.5533 7.49976C20.5305 7.50441 20.5139 7.52188 20.5103 7.54479C20.5067 7.56775 20.5173 7.58942 20.5375 7.60079C20.7574 7.72427 20.952 7.88829 21.111 8.08323C21.124 8.09913 21.1432 8.10613 21.1633 8.10238C22.4555 7.86074 23.5902 7.74672 24.5058 7.76907C27.0415 7.83095 27.4193 8.8082 25.6677 10.6407C25.1887 11.1418 24.5682 11.6757 23.8275 12.2264C23.8113 12.2384 23.8034 12.2568 23.8059 12.2767C23.8083 12.2967 23.8202 12.3126 23.8388 12.3205L24.4752 12.5894C24.4938 12.5972 24.5136 12.5947 24.5297 12.5824C25.1818 12.0808 25.7371 11.5924 26.1805 11.1285C27.225 10.0358 27.6711 9.03803 27.3482 8.25991ZM23.2065 12.6701C22.9559 12.595 22.7024 12.561 22.449 12.5683C21.8589 12.5852 21.4793 12.8001 20.9835 13.0498C20.9661 13.0585 20.9469 13.0577 20.9304 13.0475C20.9138 13.0373 20.9044 13.0205 20.9044 13.001V9.83043C20.9044 8.73395 20.0087 7.83817 18.9122 7.83817H9.08738C7.99095 7.83817 7.09518 8.73395 7.09518 9.83043V19.4032C7.09518 19.4296 7.07692 19.4518 7.05105 19.4568C6.19324 19.6239 5.40022 19.7365 4.68925 19.7922C2.8207 19.9385 1.57302 19.7128 1.30545 19.0681C1.08346 18.5333 1.55902 17.7082 2.55996 16.7282C3.47343 15.8338 4.80758 14.8481 6.44994 13.8563C6.4668 13.8461 6.47632 13.8292 6.47632 13.8096V13.113C6.47632 13.0928 6.4663 13.0756 6.44882 13.0656C6.43135 13.0556 6.41136 13.0558 6.394 13.0661C4.56202 14.1488 3.0723 15.2365 2.06386 16.2238C0.847088 17.4152 0.305344 18.506 0.651368 19.3398C1.0516 20.3042 2.55447 20.6703 4.74189 20.499C6.42273 20.3673 8.76319 19.7739 10.9482 19.0952C10.9924 19.0815 11.0375 19.0704 11.0806 19.0539C11.7785 18.7867 10.3261 16.9385 9.96204 16.3492C9.95247 16.3336 9.95112 16.316 9.95829 16.2992C9.96546 16.2824 9.97901 16.2712 9.99687 16.2672C10.0151 16.2633 10.0346 16.2649 10.0576 16.2769L12.1969 17.3959C12.6723 17.6446 13.1618 17.8034 13.6401 17.5615L21.7387 13.4651C22.2138 13.2248 22.7121 13.2107 23.2084 13.4227L24.4901 13.9702C24.6027 14.0183 24.6021 14.1759 24.4906 14.2223C18.8698 16.651 13.1947 19.6403 7.13947 20.7955C7.11354 20.8004 7.09512 20.8226 7.09512 20.849V23.225C7.09512 24.3214 7.9909 25.2173 9.08732 25.2173H18.9121C20.0085 25.2173 20.9043 24.3215 20.9043 23.225V16.5801C20.9043 16.5578 20.9168 16.5388 20.9373 16.53L24.7705 14.8737C25.451 14.5805 25.4495 13.6104 24.7672 13.3189L23.9884 12.9863C23.9881 12.9862 23.9878 12.986 23.9875 12.9859L23.2112 12.6719C23.2097 12.6711 23.2082 12.6706 23.2065 12.6701ZM16.2802 7.16863V3.58923C16.2802 3.57416 16.2856 3.56123 16.2963 3.55059C16.3069 3.53995 16.3199 3.53463 16.335 3.53468C16.5885 3.53552 16.7998 3.53485 17.0152 3.31936C17.148 3.18664 17.2304 3.00319 17.2304 2.80108V1.65487C17.2304 1.25072 16.9011 0.921387 16.497 0.921387H11.5027C11.0986 0.921387 10.7692 1.25072 10.7692 1.65487V2.80108C10.7692 3.20518 11.0986 3.53451 11.5027 3.53451H11.6649C11.695 3.53451 11.7194 3.55904 11.7194 3.58906V7.16858C11.7194 7.19865 11.744 7.22312 11.774 7.22312H12.3744C12.4044 7.22312 12.4289 7.1986 12.4289 7.16858V3.58906C12.4289 3.55899 12.4534 3.53451 12.4834 3.53451H15.516C15.5461 3.53451 15.5706 3.55904 15.5706 3.58906V7.16858C15.5706 7.19865 15.5951 7.22312 15.6251 7.22312H16.2255C16.2557 7.22318 16.2802 7.19871 16.2802 7.16863ZM12.4736 13.8893C12.4728 13.8887 12.4721 13.8882 12.4712 13.8877C11.9667 13.5671 12.1822 13.1937 12.7765 13.3602C12.7772 13.3604 12.7778 13.3605 12.7786 13.3607L17.7456 14.5513C17.7684 14.5567 17.7845 14.575 17.7871 14.5982C17.7898 14.6215 17.7782 14.6428 17.7572 14.6532L15.3104 15.8692C15.292 15.8784 15.2714 15.8767 15.2545 15.8648L12.4736 13.8893Z"
      fill="#fff"
    />
  </symbol>

  <symbol
    id="engine-departuretour-icon"
    width="25"
    height="24"
    viewBox="0 0 25 24"
    fill="none"
    xmlns="http://www.w3.org/2000/svg"
  >
    <path
      d="M5.47266 10.5269C5.47266 15.8822 11.794 21 12.9986 21C14.2031 21 20.5245 15.8822 20.5245 10.5269C20.5245 6.36941 17.1551 3 12.9986 3C8.84207 3 5.47266 6.36941 5.47266 10.5269Z"
      stroke="#18181B"
      stroke-width="1.5"
      stroke-linecap="round"
      stroke-linejoin="round"
    />
    <path
      fill-rule="evenodd"
      clip-rule="evenodd"
      d="M15.506 10.4654C15.506 9.07984 14.3831 7.95703 12.9976 7.95703C11.6111 7.95703 10.4883 9.07984 10.4883 10.4654C10.4883 11.8509 11.6111 12.9747 12.9976 12.9747C14.3831 12.9747 15.506 11.8509 15.506 10.4654Z"
      stroke="#18181B"
      stroke-width="1.5"
      stroke-linecap="round"
      stroke-linejoin="round"
    />
  </symbol>

  <symbol
    id="insurance-search-icon"
    height="24"
    width="24"
    version="1.1"
    xmlns="http://www.w3.org/2000/svg"
    xmlns:xlink="http://www.w3.org/1999/xlink"
    viewBox="0 0 245.783 245.783"
    xml:space="preserve"
  >
    <path
      fill="#52525B"
      d="M175.914,117.239c-14.184,0-27.219,4.869-37.566,13.008v67.326c0,23.865-19.414,43.279-43.279,43.279
	c-23.865,0-43.281-19.414-43.281-43.279h30.914c0,6.818,5.547,12.365,12.367,12.365c6.818,0,12.365-5.547,12.365-12.365v-67.328
	c-10.346-8.137-23.381-13.006-37.564-13.006c-18.547,0-35.145,8.305-46.311,21.385H0C0,74.274,49.455,21.491,112.426,16.181v-0.785
	c0-5.779,4.686-10.465,10.465-10.465s10.465,4.686,10.465,10.465v0.785c62.975,5.31,112.428,58.094,112.428,122.443h-23.559
	C211.059,125.544,194.461,117.239,175.914,117.239z"
    />
  </symbol>

  <symbol
    id="insurance-search-icon-active"
    height="24"
    width="24"
    version="1.1"
    xmlns="http://www.w3.org/2000/svg"
    xmlns:xlink="http://www.w3.org/1999/xlink"
    viewBox="0 0 245.783 245.783"
    xml:space="preserve"
  >
    <path
      fill="white"
      d="M175.914,117.239c-14.184,0-27.219,4.869-37.566,13.008v67.326c0,23.865-19.414,43.279-43.279,43.279
c-23.865,0-43.281-19.414-43.281-43.279h30.914c0,6.818,5.547,12.365,12.367,12.365c6.818,0,12.365-5.547,12.365-12.365v-67.328
c-10.346-8.137-23.381-13.006-37.564-13.006c-18.547,0-35.145,8.305-46.311,21.385H0C0,74.274,49.455,21.491,112.426,16.181v-0.785
c0-5.779,4.686-10.465,10.465-10.465s10.465,4.686,10.465,10.465v0.785c62.975,5.31,112.428,58.094,112.428,122.443h-23.559
C211.059,125.544,194.461,117.239,175.914,117.239z"
    />
  </symbol>
</svg>
